<svg id="SvgjsSvg1001" width="288" height="288" xmlns="http://www.w3.org/2000/svg" version="1.1" xmlns:xlink="http://www.w3.org/1999/xlink" xmlns:svgjs="http://svgjs.com/svgjs"><path id="SvgjsPath1013" d="M 144,0 C 5,0 0,5 0,144 0,283 5,288 144,288 283,288 288,283 288,144 288,5 283,0 144,0 Z" transform="matrix(1,0,0,1,0,0)" fill="#2ea6ff"></path><defs id="SvgjsDefs1002"></defs><g id="SvgjsG1008" transform="matrix(0.9999999999999999,0,0,0.9999999999999999,2.842170943040401e-14,2.842170943040401e-14)"><svg xmlns="http://www.w3.org/2000/svg" viewBox="0 0 1000 1000" width="288" height="288"><path d="M724.44,798.91h-448.88c-22.88,0-44.84-9.7-60.25-26.62-15.41-16.92-23.02-39.68-20.89-62.47l40.64-434.81c3.94-42.14,38.82-73.92,81.15-73.92h367.61c42.32,0,77.21,31.78,81.15,73.92l40.64,434.81c2.13,22.78-5.49,45.55-20.89,62.46-15.41,16.92-37.37,26.62-60.26,26.62ZM316.19,241.87c-21.15,0-38.57,15.88-40.55,36.93l-40.64,434.81c-1.08,11.55,2.63,22.63,10.44,31.21,7.81,8.58,18.5,13.3,30.1,13.3h448.88c11.6,0,22.3-4.72,30.11-13.3,7.81-8.58,11.52-19.66,10.44-31.21l-40.64-434.81c-1.97-21.05-19.4-36.93-40.55-36.93h-367.61Z" fill="#ffffff" class="svgShape color000000-0 selectable"></path><path d="M500,452.06c-76.19,0-138.17-61.99-138.17-138.17h40.78c0,53.7,43.69,97.39,97.39,97.39s97.39-43.69,97.39-97.39h40.78c0,76.19-61.98,138.17-138.17,138.17Z" fill="#ffffff" class="svgShape color000000-1 selectable"></path></svg></g></svg>